<svg id="Component_1_1" data-name="Component 1 – 1" xmlns="http://www.w3.org/2000/svg" width="373" height="60" viewBox="0 0 373 60">
  <defs>
    <style>
      .cls-1 {
        fill: #707070;
        font-size: 35px;
        font-family: SegoeUI-Bold, Segoe UI;
        font-weight: 700;
      }

      .cls-2 {
        fill: #5e6163;
      }
    </style>
  </defs>
  <text id="SERVICE" class="cls-1" transform="translate(0 44)"><tspan x="0" y="0">SERVICE</tspan></text>
  <text id="BROKER" class="cls-1" transform="translate(236 44)"><tspan x="0" y="0">BROKER</tspan></text>
  <g id="_4026435_device_electronic_machine_technology_icon" data-name="4026435_device_electronic_machine_technology_icon" transform="translate(137.2 -17.5)">
    <path id="Path_1" data-name="Path 1" class="cls-2" d="M91.276,45.242V42.134a2.089,2.089,0,0,0-2.1-2.088H84.32a21.235,21.235,0,0,0-2.441-5.863l3.44-3.422a2.08,2.08,0,0,0,0-2.957L80.9,23.413a2.107,2.107,0,0,0-2.972,0l-3.44,3.422A21.311,21.311,0,0,0,68.6,24.407V19.588A2.089,2.089,0,0,0,66.5,17.5H60.264a2.089,2.089,0,0,0-2.1,2.088V24.42a21.472,21.472,0,0,0-5.894,2.428l-3.427-3.41a2.107,2.107,0,0,0-2.972,0l-4.414,4.378a2.08,2.08,0,0,0,0,2.957L44.9,34.2a21.236,21.236,0,0,0-2.441,5.863H37.6a2.089,2.089,0,0,0-2.1,2.088v3.095H49.046a14.349,14.349,0,0,1,28.7,0Z" transform="translate(-14.588)"/>
    <path id="Path_2" data-name="Path 2" class="cls-2" d="M203.931,177.069a8.815,8.815,0,1,0-8.815,8.769A8.791,8.791,0,0,0,203.931,177.069Z" transform="translate(-146.315 -131.827)"/>
    <path id="Path_3" data-name="Path 3" class="cls-2" d="M54.476,268.481a.878.878,0,0,0-.885-.881h-7.7a.878.878,0,0,0-.885.881v12.694H41.385a.878.878,0,0,0-.885.881v5.171a5.228,5.228,0,0,1,1.771,0v-4.29h3.617a.878.878,0,0,0,.885-.881V269.361H53.59A.878.878,0,0,0,54.476,268.481Z" transform="translate(-18.955 -218.634)"/>
    <ellipse id="Ellipse_1" data-name="Ellipse 1" class="cls-2" cx="3.63" cy="3.611" rx="3.63" ry="3.611" transform="translate(18.8 70.278)"/>
    <ellipse id="Ellipse_2" data-name="Ellipse 2" class="cls-2" cx="3.63" cy="3.611" rx="3.63" ry="3.611" transform="translate(29.045 70.278)"/>
    <path id="Path_4" data-name="Path 4" class="cls-2" d="M126.836,310.1h-4.351a.878.878,0,0,0-.885.881v13.4a5.231,5.231,0,0,1,1.771,0V311.861h3.465a.881.881,0,1,0,0-1.761Z" transform="translate(-89.798 -255.787)"/>
    <ellipse id="Ellipse_3" data-name="Ellipse 3" class="cls-2" cx="3.63" cy="3.611" rx="3.63" ry="3.611" transform="translate(39.871 70.278)"/>
    <path id="Path_5" data-name="Path 5" class="cls-2" d="M208.871,335.132V323.281a.885.885,0,0,0-1.771,0v11.852a5.231,5.231,0,0,1,1.771,0Z" transform="translate(-164.485 -266.54)"/>
    <path id="Path_6" data-name="Path 6" class="cls-2" d="M373.2,287.227a5.229,5.229,0,0,1,1.771,0v-5.171a.878.878,0,0,0-.885-.881h-3.617V268.481a.878.878,0,0,0-.885-.881h-7.7a.881.881,0,1,0,0,1.761H368.7v12.694a.878.878,0,0,0,.885.881H373.2Z" transform="translate(-298.92 -218.634)"/>
    <ellipse id="Ellipse_4" data-name="Ellipse 4" class="cls-2" cx="3.63" cy="3.611" rx="3.63" ry="3.611" transform="translate(71.54 70.278)"/>
    <ellipse id="Ellipse_5" data-name="Ellipse 5" class="cls-2" cx="3.63" cy="3.611" rx="3.63" ry="3.611" transform="translate(61.296 70.278)"/>
    <path id="Path_7" data-name="Path 7" class="cls-2" d="M346.363,324.38a5.231,5.231,0,0,1,1.771,0v-13.4a.878.878,0,0,0-.885-.881h-4.363a.881.881,0,1,0,0,1.761h3.465V324.38Z" transform="translate(-282.323 -255.787)"/>
    <ellipse id="Ellipse_6" data-name="Ellipse 6" class="cls-2" cx="3.63" cy="3.611" rx="3.63" ry="3.611" transform="translate(50.469 70.278)"/>
    <path id="Path_8" data-name="Path 8" class="cls-2" d="M290.9,323.281v11.852a5.229,5.229,0,0,1,1.771,0V323.281a.878.878,0,0,0-.885-.881A.894.894,0,0,0,290.9,323.281Z" transform="translate(-237.686 -266.54)"/>
  </g>
</svg>
